<?xml version="1.0" encoding="utf-8"?>
<!-- Generator: Adobe Illustrator 15.0.0, SVG Export Plug-In . SVG Version: 6.00 Build 0)  -->
<!DOCTYPE svg PUBLIC "-//W3C//DTD SVG 1.1//EN" "http://www.w3.org/Graphics/SVG/1.1/DTD/svg11.dtd">
<svg version="1.1"
	 id="svg2" inkscape:version="0.48.3.1 r9886" sodipodi:docname="buffer.png" xmlns:dc="http://purl.org/dc/elements/1.1/" xmlns:cc="http://creativecommons.org/ns#" xmlns:rdf="http://www.w3.org/1999/02/22-rdf-syntax-ns#" xmlns:svg="http://www.w3.org/2000/svg" xmlns:sodipodi="http://sodipodi.sourceforge.net/DTD/sodipodi-0.dtd" xmlns:inkscape="http://www.inkscape.org/namespaces/inkscape"
	 xmlns="http://www.w3.org/2000/svg" xmlns:xlink="http://www.w3.org/1999/xlink" x="0px" y="0px" width="24px" height="24px"
	 viewBox="0 0 24 24" enable-background="new 0 0 24 24" xml:space="preserve">
<sodipodi:namedview  id="namedview4" inkscape:pageopacity="0" inkscape:pageshadow="2" inkscape:window-width="1375" inkscape:window-height="876" inkscape:window-x="65" inkscape:window-y="24" inkscape:current-layer="svg2" inkscape:window-maximized="1" pagecolor="#ffffff" borderopacity="1" bordercolor="#666666" showgrid="false" objecttolerance="10" gridtolerance="10" inkscape:zoom="9.8333333" guidetolerance="10" inkscape:cx="49.680464" inkscape:cy="0.5315574">
	</sodipodi:namedview>
<g>
	<path d="M22.262,22.312c0,0.496-0.157,0.902-0.47,1.218C21.478,23.841,21.071,24,20.574,24H14.45c-0.497,0-0.902-0.159-1.217-0.471
		c-0.312-0.315-0.471-0.722-0.471-1.218v-3.359h2.111v3.178h5.259v-7.28l-4.192-3.146v-0.471l4.162-3.1v-6.05h-5.197v3.368h-2.111
		v-3.55c0-0.497,0.156-0.903,0.47-1.215c0.315-0.314,0.72-0.472,1.216-0.472h6.065c0.496,0,0.9,0.157,1.215,0.472
		c0.315,0.313,0.472,0.718,0.472,1.215v5.791c0,0.76-0.305,1.353-0.912,1.777l-2.827,1.991l2.858,1.991
		c0.607,0.414,0.911,1.018,0.911,1.809V22.312z"/>
</g>
<circle fill="#FFFFFF" stroke="#000000" stroke-miterlimit="10" cx="13.969" cy="5.317" r="1.915"/>
<circle fill="#FFFFFF" stroke="#000000" stroke-miterlimit="10" cx="20.876" cy="14.709" r="1.915"/>
<g>
	<path d="M10.232,19.062v0.086l-0.434,0.57c0.282,0.102,0.424,0.331,0.424,0.69v2.759c0,0.503-0.259,0.756-0.777,0.756H2.504
		c-0.522,0-0.783-0.258-0.783-0.771v-2.743c0-0.515,0.261-0.771,0.783-0.771h6.148l0.413-0.575H10.232z M9.13,20.908H8.832
		l-0.565,0.744H7.109v-0.077l0.5-0.667H2.813v1.743H9.13V20.908z"/>
	<path d="M10.222,14.141v1.113L4.872,17.29c0.261-0.055,0.466-0.081,0.614-0.081h4.736v1.238H1.721v-1.113l5.242-2.036
		c-0.26,0.054-0.465,0.08-0.614,0.08H1.721v-1.237H10.222z"/>
	<path d="M10.222,9.594v3.524H1.721V9.626h1.125v2.222h2.482V9.936h1.103v1.912h2.667V9.594H10.222z"/>
	<path d="M10.222,4.417v1.26L8.609,5.934v1.591l1.613,0.255v1.255H10.2L1.71,7.389V6.053L10.222,4.417z M7.517,6.112l-3.834,0.62
		l3.834,0.624V6.112z"/>
	<path d="M2.846,0.013v1.401h7.376V2.68H2.846v1.401H1.721V0.013H2.846z"/>
</g>
</svg>
