<?xml version="1.0" encoding="utf-8"?>
<!-- Generator: Adobe Illustrator 15.0.0, SVG Export Plug-In . SVG Version: 6.00 Build 0)  -->
<!DOCTYPE svg PUBLIC "-//W3C//DTD SVG 1.1//EN" "http://www.w3.org/Graphics/SVG/1.1/DTD/svg11.dtd">
<svg version="1.1"
	 id="svg2" inkscape:version="0.48.3.1 r9886" sodipodi:docname="buffer.png" xmlns:dc="http://purl.org/dc/elements/1.1/" xmlns:cc="http://creativecommons.org/ns#" xmlns:rdf="http://www.w3.org/1999/02/22-rdf-syntax-ns#" xmlns:svg="http://www.w3.org/2000/svg" xmlns:sodipodi="http://sodipodi.sourceforge.net/DTD/sodipodi-0.dtd" xmlns:inkscape="http://www.inkscape.org/namespaces/inkscape"
	 xmlns="http://www.w3.org/2000/svg" xmlns:xlink="http://www.w3.org/1999/xlink" x="0px" y="0px" width="24px" height="24px"
	 viewBox="0 0 24 24" enable-background="new 0 0 24 24" xml:space="preserve">
<sodipodi:namedview  id="namedview4" inkscape:current-layer="svg2" inkscape:window-y="24" inkscape:window-x="65" inkscape:window-height="876" inkscape:window-width="1375" inkscape:pageshadow="2" inkscape:pageopacity="0" inkscape:window-maximized="1" bordercolor="#666666" pagecolor="#ffffff" inkscape:cy="0.5315574" inkscape:cx="49.680464" guidetolerance="10" inkscape:zoom="9.8333333" gridtolerance="10" objecttolerance="10" showgrid="false" borderopacity="1">
	</sodipodi:namedview>
<path d="M8.283,17.389c-0.168,0.576-0.348,1.055-0.568,1.602c-0.037,0.09-0.054,0.186-0.06,0.275
	c-0.061,0.918-0.732,1.77-2.057,1.77c-1.217,0-2.123-0.768-2.123-1.979c0-1.23,0.936-1.908,2.045-1.908
	c0.918,0,1.564,0.426,1.805,0.953h0.023c0.09-0.305,0.168-0.652,0.229-0.971L8.283,17.389z M5.555,18.115
	c-0.742,0-1.354,0.348-1.354,0.971s0.611,0.982,1.373,0.982c0.768,0,1.355-0.365,1.355-0.982S6.348,18.115,5.555,18.115z"/>
<path d="M7.588,16.547H3.547V15.48l1.48-0.84c0.426-0.24,0.93-0.475,1.385-0.66v-0.012c-0.533,0.055-1.078,0.072-1.689,0.072H3.547
	v-0.84h4.041v0.959l-1.559,0.863c-0.432,0.24-0.953,0.51-1.428,0.701v0.025c0.541-0.031,1.109-0.043,1.77-0.043h1.217V16.547z"/>
<path d="M5.879,10.002v1.488h0.959V9.828h0.75v2.574H3.547v-2.49h0.75v1.578h0.838v-1.488H5.879z"/>
<path d="M6.551,8.262l1.037,0.287V9.49L3.547,8.262V7.063l4.041-1.26v0.99L6.551,7.104V8.262z M5.867,7.236L5.01,7.488
	C4.77,7.561,4.471,7.633,4.23,7.691v0.014c0.24,0.059,0.545,0.119,0.779,0.186l0.857,0.24V7.236z"/>
<path d="M4.314,4.98v1.092H3.547V2.965h0.768v1.104h3.273V4.98H4.314z"/>
<g>
	<path d="M10.122,16.64c0.713,0.396,2.345,1.057,3.985,1.057c2.078,0,3.134-1.005,3.134-2.268c0-1.717-1.683-2.481-3.452-2.481
		h-1.631v-2.873h1.58c1.34,0,3.032-0.528,3.032-1.979c0-1.026-0.816-1.791-2.534-1.791c-1.399,0-2.876,0.605-3.555,1.026
		L9.856,4.433c1.031-0.657,3.066-1.292,5.307-1.292c3.633,0,5.668,1.923,5.668,4.272c0,1.82-1.03,3.268-3.143,3.98v0.052
		c2.061,0.369,3.718,1.928,3.718,4.195c0,3.006-2.662,5.221-7.016,5.221c-2.208,0-4.08-0.583-5.084-1.188L10.122,16.64z"/>
</g>
</svg>
