<?xml version="1.0" encoding="utf-8"?>
<!-- Generator: Adobe Illustrator 15.0.0, SVG Export Plug-In . SVG Version: 6.00 Build 0)  -->
<!DOCTYPE svg PUBLIC "-//W3C//DTD SVG 1.1//EN" "http://www.w3.org/Graphics/SVG/1.1/DTD/svg11.dtd">
<svg version="1.1"
	 id="svg2" inkscape:version="0.48.3.1 r9886" sodipodi:docname="buffer.png" xmlns:dc="http://purl.org/dc/elements/1.1/" xmlns:cc="http://creativecommons.org/ns#" xmlns:rdf="http://www.w3.org/1999/02/22-rdf-syntax-ns#" xmlns:svg="http://www.w3.org/2000/svg" xmlns:sodipodi="http://sodipodi.sourceforge.net/DTD/sodipodi-0.dtd" xmlns:inkscape="http://www.inkscape.org/namespaces/inkscape"
	 xmlns="http://www.w3.org/2000/svg" xmlns:xlink="http://www.w3.org/1999/xlink" x="0px" y="0px" width="24px" height="24px"
	 viewBox="0 0 24 24" enable-background="new 0 0 24 24" xml:space="preserve">
<g>
	<g>
		<path fill="#FF0000" d="M23.5,5.333V23.5H5.333V5.333H23.5 M24,4.833H4.833V24H24V4.833L24,4.833z"/>
	</g>
	<line fill="none" stroke="#FF0000" stroke-width="0.5" stroke-miterlimit="10" x1="4.833" y1="19.209" x2="24" y2="19.209"/>
	<line fill="none" stroke="#FF0000" stroke-width="0.5" stroke-miterlimit="10" x1="4.833" y1="14.416" x2="24" y2="14.416"/>
	<line fill="none" stroke="#FF0000" stroke-width="0.5" stroke-miterlimit="10" x1="4.833" y1="9.625" x2="24" y2="9.625"/>
	<line fill="none" stroke="#FF0000" stroke-width="0.5" stroke-miterlimit="10" x1="19.209" y1="4.833" x2="19.209" y2="24"/>
	<line fill="none" stroke="#FF0000" stroke-width="0.5" stroke-miterlimit="10" x1="14.416" y1="4.833" x2="14.416" y2="24"/>
	<line fill="none" stroke="#FF0000" stroke-width="0.5" stroke-miterlimit="10" x1="9.625" y1="4.833" x2="9.625" y2="24"/>
</g>
<sodipodi:namedview  id="namedview4" inkscape:pageopacity="0" inkscape:pageshadow="2" inkscape:window-width="1375" inkscape:window-height="876" inkscape:window-x="65" inkscape:window-y="24" inkscape:current-layer="svg2" inkscape:window-maximized="1" pagecolor="#ffffff" showgrid="false" bordercolor="#666666" objecttolerance="10" gridtolerance="10" inkscape:zoom="9.8333333" guidetolerance="10" inkscape:cx="49.680464" inkscape:cy="0.5315574" borderopacity="1">
	</sodipodi:namedview>
<g>
	<path d="M7.852,8.34c2.18,2.181,2.18,4.79,0.236,6.733c-1.955,1.955-4.593,1.631-6.489-0.263c-1.982-1.984-2.188-4.742-0.246-6.686
		C3.386,6.091,6.019,6.506,7.852,8.34z M3.149,13.202c1.307,1.303,2.827,1.608,3.83,0.604c1.012-1.011,0.627-2.553-0.658-3.838
		C5.122,8.771,3.544,8.31,2.511,9.342C1.49,10.363,1.865,11.914,3.149,13.202z"/>
	<path d="M5.696,4.214C6.157,3.578,6.814,2.8,7.563,2.054c1.266-1.266,2.326-1.856,3.426-2.013c1.199-0.177,2.444,0.205,3.614,1.375
		c1.266,1.266,1.678,2.602,1.59,3.769c-0.121,1.278-0.914,2.624-2.214,3.918c-0.773,0.777-1.382,1.286-1.792,1.601L5.696,4.214z
		 M12.578,8.112c0.155-0.099,0.373-0.313,0.549-0.49c1.376-1.352,1.521-2.993-0.058-4.575c-1.372-1.373-2.904-1.296-4.202,0
		C8.543,3.374,8.347,3.626,8.25,3.784L12.578,8.112z"/>
</g>
<rect x="21.084" y="0.91" fill="none" width="1.916" height="4.895"/>
<g>
	<g>
		<line fill="none" stroke="#000000" stroke-miterlimit="10" x1="17.125" y1="2.396" x2="21.015" y2="2.396"/>
		<g>
			<polygon points="19.61,4.247 20.397,2.396 19.61,0.544 24,2.396 			"/>
		</g>
	</g>
</g>
<g>
	<g>
		<line fill="none" stroke="#000000" stroke-miterlimit="10" x1="2.438" y1="17.125" x2="2.438" y2="21.015"/>
		<g>
			<polygon points="0.586,19.61 2.438,20.397 4.289,19.61 2.438,24 			"/>
		</g>
	</g>
</g>
</svg>
