<?xml version="1.0" encoding="utf-8"?>
<!-- Generator: Adobe Illustrator 15.0.0, SVG Export Plug-In . SVG Version: 6.00 Build 0)  -->
<!DOCTYPE svg PUBLIC "-//W3C//DTD SVG 1.1//EN" "http://www.w3.org/Graphics/SVG/1.1/DTD/svg11.dtd">
<svg version="1.1" xmlns="http://www.w3.org/2000/svg" xmlns:xlink="http://www.w3.org/1999/xlink" x="0px" y="0px" width="24px"
	 height="24px" viewBox="0 0 24 24" enable-background="new 0 0 24 24" xml:space="preserve">
<g id="svg2" sodipodi:docname="buffer.png" inkscape:version="0.48.3.1 r9886" xmlns:inkscape="http://www.inkscape.org/namespaces/inkscape" xmlns:sodipodi="http://sodipodi.sourceforge.net/DTD/sodipodi-0.dtd" xmlns:svg="http://www.w3.org/2000/svg" xmlns:cc="http://creativecommons.org/ns#" xmlns:rdf="http://www.w3.org/1999/02/22-rdf-syntax-ns#" xmlns:dc="http://purl.org/dc/elements/1.1/">
	<g>
		<g>
			<path d="M20.916,3.417v17.667H3.25V3.417H20.916 M21.666,2.667H2.5v19.167h19.166V2.667L21.666,2.667z"/>
		</g>
		<line fill="none" stroke="#000000" stroke-width="0.75" stroke-miterlimit="10" x1="2.5" y1="17.042" x2="7.25" y2="17.042"/>
		<line fill="none" stroke="#000000" stroke-width="0.75" stroke-miterlimit="10" x1="7.333" y1="12.249" x2="21.666" y2="12.249"/>
		<line fill="none" stroke="#000000" stroke-width="0.75" stroke-miterlimit="10" x1="16.917" y1="7.458" x2="19.063" y2="8.25"/>
		<polyline fill="none" stroke="#000000" stroke-width="0.75" stroke-miterlimit="10" points="8.313,4.688 9.5,5.75 10.75,5.583 
			12.083,5.417 		"/>
		<line fill="none" stroke="#000000" stroke-width="0.75" stroke-miterlimit="10" x1="2.5" y1="9.458" x2="7.5" y2="9.458"/>
		<polyline fill="none" stroke="#000000" stroke-width="0.75" stroke-miterlimit="10" points="12.083,2.667 12.083,12.25 
			12.167,17.083 16.833,19.333 18.938,17.813 16.75,15.125 		"/>
		<polyline fill="none" stroke="#000000" stroke-width="0.75" stroke-miterlimit="10" points="16.875,2.667 16.917,7.458 
			12.063,9.938 		"/>
		<polyline fill="none" stroke="#000000" stroke-width="0.75" stroke-miterlimit="10" points="7.25,7.438 7.267,12.249 6,19.313 		
			"/>
	</g>
	
		<sodipodi:namedview  id="namedview4" inkscape:window-maximized="1" inkscape:current-layer="svg2" inkscape:window-y="24" inkscape:window-x="65" inkscape:window-height="876" inkscape:window-width="1375" inkscape:pageshadow="2" inkscape:pageopacity="0" borderopacity="1" inkscape:cy="0.5315574" inkscape:cx="49.680464" guidetolerance="10" inkscape:zoom="9.8333333" gridtolerance="10" objecttolerance="10" bordercolor="#666666" showgrid="false" pagecolor="#ffffff">
		</sodipodi:namedview>
	<line fill="none" stroke="#000000" stroke-width="0.75" stroke-miterlimit="10" x1="7.25" y1="17.042" x2="12.167" y2="17.083"/>
	<line fill="none" stroke="#000000" stroke-width="0.75" stroke-miterlimit="10" x1="16.833" y1="19.333" x2="16.828" y2="21.667"/>
</g>
<g id="Ebene_2">
	
		<polyline fill="none" stroke="#FF0000" stroke-width="1.3" stroke-linecap="round" stroke-linejoin="round" stroke-miterlimit="10" points="
		16.792,15.25 18.875,17.792 16.834,19.333 12.125,17.083 12.083,12.208 7.292,12.25 7.208,7.5 	"/>
	<circle fill="#FF0000" stroke="#FF0000" stroke-miterlimit="10" cx="7.24" cy="7.427" r="1.24"/>
	<circle fill="#FF0000" stroke="#FF0000" stroke-miterlimit="10" cx="16.698" cy="15.01" r="1.24"/>
</g>
</svg>
