<?xml version="1.0" encoding="utf-8"?>
<!-- Generator: Adobe Illustrator 15.0.0, SVG Export Plug-In . SVG Version: 6.00 Build 0)  -->
<!DOCTYPE svg PUBLIC "-//W3C//DTD SVG 1.1//EN" "http://www.w3.org/Graphics/SVG/1.1/DTD/svg11.dtd">
<svg version="1.1" id="Ebene_1" xmlns="http://www.w3.org/2000/svg" xmlns:xlink="http://www.w3.org/1999/xlink" x="0px" y="0px"
	 width="24px" height="24px" viewBox="0 0 24 24" enable-background="new 0 0 24 24" xml:space="preserve">
<circle fill="#F18700" cx="10.802" cy="11.376" r="0.624"/>
<circle fill="#F18700" cx="9.239" cy="10.312" r="0.624"/>
<circle fill="#F18700" cx="8.583" cy="9.093" r="0.624"/>
<circle fill="#F18700" cx="8.813" cy="7.687" r="0.624"/>
<circle fill="#F18700" cx="10.392" cy="6.593" r="0.624"/>
<circle fill="#F18700" cx="11.781" cy="7.093" r="0.624"/>
<circle fill="#F18700" cx="12.704" cy="8.469" r="0.624"/>
<circle fill="#F18700" cx="12.08" cy="10.128" r="0.624"/>
<circle fill="#F18700" cx="12.704" cy="11.128" r="0.624"/>
<circle fill="#F18700" cx="13.829" cy="12.229" r="0.624"/>
<circle fill="#F18700" cx="14.453" cy="13.625" r="0.624"/>
<circle fill="#F18700" cx="15.701" cy="13.703" r="0.624"/>
<circle fill="#F18700" cx="16.563" cy="15.187" r="0.624"/>
<circle fill="#F18700" cx="16.325" cy="16.562" r="0.624"/>
<circle fill="#F18700" cx="15.204" cy="17.437" r="0.624"/>
<circle fill="#F18700" cx="13.829" cy="17.891" r="0.624"/>
<circle fill="#F18700" cx="12.517" cy="16.813" r="0.624"/>
<circle fill="#F18700" cx="11.385" cy="15.5" r="0.624"/>
<circle fill="#F18700" cx="10.024" cy="14.327" r="0.624"/>
<circle fill="#F18700" cx="9.863" cy="13.001" r="0.624"/>
<circle fill="#F18700" cx="9.437" cy="11.752" r="0.624"/>
<circle fill="#F18700" cx="7.991" cy="11.5" r="0.624"/>
<circle fill="#F18700" cx="6.864" cy="12.229" r="0.624"/>
<circle fill="#F18700" cx="6.937" cy="13.478" r="0.624"/>
<circle fill="#F18700" cx="5.641" cy="13.703" r="0.624"/>
<circle fill="#F18700" cx="6.265" cy="14.806" r="0.624"/>
<circle fill="#F18700" cx="5.326" cy="12.457" r="0.624"/>
<circle fill="#F18700" cx="7.367" cy="15.575" r="0.624"/>
<circle fill="#F18700" cx="8.813" cy="15.314" r="0.624"/>
<circle fill="#F18700" cx="12.517" cy="14.876" r="0.624"/>
<circle fill="#F18700" cx="13.058" cy="13.703" r="0.624"/>
<circle fill="#F18700" cx="10.648" cy="10.036" r="0.624"/>
<circle fill="#E30613" cx="5.414" cy="9.251" r="0.625"/>
<circle fill="#E30613" cx="5.099" cy="10.504" r="0.625"/>
<circle fill="#E30613" cx="4.077" cy="11.376" r="0.625"/>
<circle fill="#E30613" cx="2.952" cy="12.229" r="0.625"/>
<circle fill="#E30613" cx="3.03" cy="13.625" r="0.625"/>
<circle fill="#E30613" cx="4.077" cy="13.079" r="0.625"/>
<circle fill="#E30613" cx="4.702" cy="14.253" r="0.625"/>
<circle fill="#E30613" cx="3.577" cy="15.016" r="0.625"/>
<circle fill="#E30613" cx="4.64" cy="15.938" r="0.625"/>
<circle fill="#E30613" cx="5.531" cy="17.109" r="0.625"/>
<circle fill="#E30613" cx="6.265" cy="16.124" r="0.625"/>
<circle fill="#E30613" cx="7.367" cy="17.063" r="0.625"/>
<circle fill="#E30613" cx="8.615" cy="16.813" r="0.625"/>
<circle fill="#E30613" cx="9.863" cy="15.938" r="0.625"/>
<circle fill="#E30613" cx="11.062" cy="16.813" r="0.625"/>
<circle fill="#E30613" cx="14.453" cy="19.141" r="0.625"/>
<circle fill="#E30613" cx="17.861" cy="16.199" r="0.625"/>
<circle fill="#E30613" cx="17.971" cy="14.951" r="0.625"/>
<circle fill="#E30613" cx="15.204" cy="12.375" r="0.625"/>
<circle fill="#E30613" cx="14.579" cy="11.128" r="0.625"/>
<circle fill="#E30613" cx="13.423" cy="10.036" r="0.625"/>
<circle fill="#E30613" cx="14.267" cy="8.625" r="0.625"/>
<circle fill="#E30613" cx="13.515" cy="7.469" r="0.625"/>
<circle fill="#E30613" cx="12.798" cy="6.313" r="0.625"/>
<circle fill="#E30613" cx="11.897" cy="4.951" r="0.625"/>
<circle fill="#E30613" cx="10.648" cy="5.263" r="0.625"/>
<circle fill="#E30613" cx="9.239" cy="5.844" r="0.625"/>
<circle fill="#E30613" cx="8.189" cy="6.469" r="0.625"/>
<circle fill="#E30613" cx="7.367" cy="7.562" r="0.625"/>
<circle fill="#E30613" cx="7.366" cy="8.89" r="0.625"/>
<circle fill="#E30613" cx="7.757" cy="10.252" r="0.625"/>
<circle fill="#E30613" cx="6.574" cy="9.955" r="0.625"/>
<circle fill="#E30613" cx="6.24" cy="11.204" r="0.625"/>
<circle fill="#E30613" cx="6.151" cy="8.265" r="0.625"/>
<circle fill="#E30613" cx="16.796" cy="13.938" r="0.625"/>
<circle fill="#E30613" cx="6.313" cy="17.891" r="0.625"/>
<circle fill="#E30613" cx="7.561" cy="18.516" r="0.625"/>
<circle fill="#E30613" cx="8.983" cy="18.125" r="0.625"/>
<circle fill="#E30613" cx="10.233" cy="17.811" r="0.625"/>
<circle fill="#E30613" cx="11.202" cy="18.516" r="0.625"/>
<circle fill="#E30613" cx="12.434" cy="19.141" r="0.625"/>
<circle fill="#E30613" cx="13.418" cy="20.188" r="0.625"/>
<circle fill="#E30613" cx="14.668" cy="20.609" r="0.625"/>
<circle fill="#E30613" cx="15.828" cy="19.875" r="0.625"/>
<circle fill="#E30613" cx="16.563" cy="19.141" r="0.625"/>
<circle fill="#E30613" cx="17.345" cy="18.061" r="0.625"/>
<circle fill="#E30613" cx="18.485" cy="17.436" r="0.625"/>
<circle fill="#E30613" cx="19.395" cy="16.438" r="0.625"/>
<circle fill="#E30613" cx="19.598" cy="15.187" r="0.625"/>
<circle fill="#E30613" cx="18.77" cy="14.018" r="0.625"/>
<circle fill="#E30613" cx="17.861" cy="13.079" r="0.625"/>
<circle fill="#E30613" cx="16.721" cy="12.376" r="0.625"/>
<circle fill="#E30613" cx="16.018" cy="10.936" r="0.625"/>
<circle fill="#E30613" cx="15.077" cy="9.795" r="0.625"/>
<circle fill="#E30613" cx="15.765" cy="8.625" r="0.625"/>
<circle fill="#E30613" cx="15.14" cy="7.187" r="0.625"/>
<circle fill="#E30613" cx="14.14" cy="6.125" r="0.625"/>
<circle fill="#E30613" cx="13.218" cy="4.874" r="0.625"/>
<circle fill="#E30613" cx="12.704" cy="3.702" r="0.625"/>
<circle fill="#E30613" cx="11.272" cy="3.702" r="0.625"/>
<circle fill="#E30613" cx="9.863" cy="4.186" r="0.625"/>
<circle fill="#E30613" cx="8.738" cy="4.702" r="0.625"/>
<circle fill="#E30613" cx="7.489" cy="5.326" r="0.625"/>
<circle fill="#E30613" cx="6.864" cy="6.391" r="0.625"/>
<circle fill="#E30613" cx="5.724" cy="7.016" r="0.625"/>
<circle fill="#E30613" cx="4.71" cy="8.125" r="0.625"/>
<circle fill="#662483" cx="4.015" cy="9.33" r="0.625"/>
<circle fill="#662483" cx="3.108" cy="10.503" r="0.625"/>
<circle fill="#662483" cx="2.327" cy="9.33" r="0.625"/>
<circle fill="#662483" cx="3.452" cy="8.094" r="0.625"/>
<circle fill="#662483" cx="2.062" cy="7.812" r="0.625"/>
<circle fill="#662483" cx="4.202" cy="6.844" r="0.625"/>
<circle fill="#662483" cx="2.827" cy="6.391" r="0.625"/>
<circle fill="#662483" cx="4.358" cy="5.326" r="0.625"/>
<circle fill="#662483" cx="5.641" cy="5.576" r="0.625"/>
<circle fill="#662483" cx="4.64" cy="3.919" r="0.625"/>
<circle fill="#662483" cx="5.89" cy="3.294" r="0.625"/>
<circle fill="#662483" cx="7.199" cy="2.373" r="0.625"/>
<circle fill="#662483" cx="8.449" cy="1.896" r="0.625"/>
<circle fill="#662483" cx="9.864" cy="1.748" r="0.625"/>
<circle fill="#662483" cx="11.385" cy="1.482" r="0.625"/>
<circle fill="#662483" cx="12.705" cy="1.201" r="0.625"/>
<circle fill="#662483" cx="14.139" cy="1.826" r="0.625"/>
<circle fill="#662483" cx="14.967" cy="2.998" r="0.625"/>
<circle fill="#662483" cx="16.092" cy="4.076" r="0.625"/>
<circle fill="#662483" cx="16.654" cy="5.326" r="0.625"/>
<circle fill="#662483" cx="17.607" cy="6.391" r="0.625"/>
<circle fill="#662483" cx="18.486" cy="7.812" r="0.625"/>
<circle fill="#662483" cx="17.861" cy="9.412" r="0.625"/>
<circle fill="#662483" cx="17.236" cy="7.717" r="0.625"/>
<circle fill="#662483" cx="16.563" cy="9.626" r="0.625"/>
<circle fill="#662483" cx="17.345" cy="10.752" r="0.625"/>
<circle fill="#662483" cx="18.857" cy="10.582" r="0.625"/>
<circle fill="#662483" cx="19.395" cy="11.832" r="0.625"/>
<circle fill="#662483" cx="18.145" cy="11.753" r="0.625"/>
<circle fill="#662483" cx="20.363" cy="12.625" r="0.625"/>
<circle fill="#662483" cx="21.566" cy="13.625" r="0.625"/>
<circle fill="#662483" cx="20.02" cy="13.703" r="0.625"/>
<circle fill="#662483" cx="22.504" cy="14.876" r="0.625"/>
<circle fill="#662483" cx="22.332" cy="16.188" r="0.625"/>
<circle fill="#662483" cx="21.395" cy="17.595" r="0.625"/>
<circle fill="#662483" cx="20.457" cy="18.61" r="0.625"/>
<circle fill="#662483" cx="19.395" cy="19.874" r="0.625"/>
<circle fill="#662483" cx="18.082" cy="20.39" r="0.625"/>
<circle fill="#662483" cx="16.721" cy="20.188" r="0.625"/>
<circle fill="#662483" cx="17.235" cy="21.557" r="0.625"/>
<circle fill="#662483" cx="16.949" cy="22.979" r="0.625"/>
<circle fill="#662483" cx="13.059" cy="22.896" r="0.625"/>
<circle fill="#662483" cx="15.294" cy="22.979" r="0.625"/>
<circle fill="#662483" cx="14.309" cy="22.021" r="0.625"/>
<circle fill="#662483" cx="13.059" cy="21.396" r="0.625"/>
<circle fill="#662483" cx="11.414" cy="19.875" r="0.625"/>
<circle fill="#662483" cx="10.164" cy="19.235" r="0.625"/>
<circle fill="#662483" cx="8.615" cy="19.375" r="0.625"/>
<circle fill="#662483" cx="6.938" cy="19.875" r="0.625"/>
<circle fill="#662483" cx="5.64" cy="19.235" r="0.625"/>
<circle fill="#662483" cx="4.39" cy="18.06" r="0.625"/>
<circle fill="#662483" cx="3.655" cy="16.823" r="0.625"/>
<circle fill="#662483" cx="2.572" cy="15.72" r="0.625"/>
<circle fill="#662483" cx="2.327" cy="17.186" r="0.625"/>
<circle fill="#662483" cx="3.577" cy="18.75" r="0.625"/>
<circle fill="#662483" cx="5.724" cy="20.609" r="0.625"/>
<circle fill="#662483" cx="7.488" cy="21.234" r="0.625"/>
<circle fill="#662483" cx="8.738" cy="20.932" r="0.625"/>
<circle fill="#662483" cx="10.321" cy="20.771" r="0.625"/>
<circle fill="#662483" cx="1.78" cy="13.703" r="0.625"/>
<circle fill="#662483" cx="1.702" cy="12.375" r="0.625"/>
<circle fill="#662483" cx="1.947" cy="10.876" r="0.625"/>
<circle fill="#662483" cx="0.625" cy="11.205" r="0.625"/>
<circle fill="#662483" cx="1.458" cy="15.015" r="0.625"/>
<circle fill="#662483" cx="11.687" cy="21.234" r="0.625"/>
<circle fill="#662483" cx="15.829" cy="21.729" r="0.625"/>
<circle fill="#662483" cx="18.199" cy="19.06" r="0.625"/>
<circle fill="#662483" cx="19.928" cy="17.687" r="0.625"/>
<circle fill="#662483" cx="20.77" cy="16.345" r="0.625"/>
<circle fill="#662483" cx="21.082" cy="14.95" r="0.625"/>
<circle fill="#662483" cx="16.236" cy="6.593" r="0.625"/>
<circle fill="#662483" cx="15.203" cy="5.326" r="0.625"/>
<circle fill="#662483" cx="14.266" cy="4.186" r="0.625"/>
<circle fill="#662483" cx="12.705" cy="2.521" r="0.625"/>
<circle fill="#662483" cx="10.76" cy="2.669" r="0.625"/>
<circle fill="#662483" cx="9.208" cy="3.076" r="0.625"/>
<circle fill="#662483" cx="7.895" cy="3.701" r="0.625"/>
<circle fill="#662483" cx="6.574" cy="4.397" r="0.625"/>
<circle fill="#FFFFFF" stroke="#000000" stroke-miterlimit="10" cx="14.266" cy="15.5" r="0.938"/>
<circle fill="#FFFFFF" stroke="#000000" stroke-miterlimit="10" cx="12" cy="13.079" r="0.938"/>
<circle fill="#FFFFFF" stroke="#000000" stroke-miterlimit="10" cx="7.875" cy="13.625" r="0.938"/>
<circle fill="#FFFFFF" stroke="#000000" stroke-miterlimit="10" cx="10.648" cy="8.75" r="0.938"/>
</svg>
