<?xml version="1.0" encoding="utf-8"?>
<!-- Generator: Adobe Illustrator 15.0.0, SVG Export Plug-In . SVG Version: 6.00 Build 0)  -->
<!DOCTYPE svg PUBLIC "-//W3C//DTD SVG 1.1//EN" "http://www.w3.org/Graphics/SVG/1.1/DTD/svg11.dtd">
<svg version="1.1" id="Ebene_1" xmlns="http://www.w3.org/2000/svg" xmlns:xlink="http://www.w3.org/1999/xlink" x="0px" y="0px"
	 width="24px" height="24px" viewBox="0 0 24 24" enable-background="new 0 0 24 24" xml:space="preserve">
<g id="svg2" inkscape:version="0.48.3.1 r9886" sodipodi:docname="buffer.png" xmlns:dc="http://purl.org/dc/elements/1.1/" xmlns:rdf="http://www.w3.org/1999/02/22-rdf-syntax-ns#" xmlns:cc="http://creativecommons.org/ns#" xmlns:svg="http://www.w3.org/2000/svg" xmlns:sodipodi="http://sodipodi.sourceforge.net/DTD/sodipodi-0.dtd" xmlns:inkscape="http://www.inkscape.org/namespaces/inkscape" display="none">
	
		<sodipodi:namedview  id="namedview4" inkscape:current-layer="svg2" inkscape:window-y="24" inkscape:window-x="65" inkscape:window-height="876" inkscape:window-width="1375" inkscape:pageshadow="2" inkscape:pageopacity="0" inkscape:window-maximized="1" borderopacity="1" showgrid="false" inkscape:cy="0.5315574" pagecolor="#ffffff" inkscape:cx="49.680464" guidetolerance="10" inkscape:zoom="9.8333333" gridtolerance="10" objecttolerance="10" bordercolor="#666666">
		</sodipodi:namedview>
	
		<image display="inline" overflow="visible" enable-background="new    " width="452" height="352" xlink:href="C:\Users\Clemens Raffler\Desktop\C78h5KaW0AAi3Sg.jpg"  transform="matrix(0.0784 0 0 0.0784 -1.8545 -1.6128)">
	</image>
	<polygon display="inline" fill="none" points="9.188,11.859 9.313,12.109 9.719,12.297 11.219,13.766 11.594,13.359 12.344,13.047 
		12.688,12.563 12.719,12.078 12.078,11.734 12.156,11.266 11.719,11.188 12.078,10.594 11.891,10.281 11.484,10 11.047,10.203 
		10.391,10.266 10.188,10.547 9.797,10.797 9.625,11.141 	"/>
</g>
<circle fill="none" stroke="#000000" stroke-miterlimit="10" cx="10.75" cy="11.938" r="0.938"/>
<circle fill="#662483" cx="1.583" cy="6.625" r="0.625"/>
<circle fill="#662483" cx="2.708" cy="5.042" r="0.625"/>
<circle fill="#662483" cx="4.292" cy="4.167" r="0.625"/>
<circle fill="#662483" cx="5.917" cy="3.458" r="0.625"/>
<circle fill="#662483" cx="7.875" cy="2.875" r="0.625"/>
<circle fill="#662483" cx="9.625" cy="2.667" r="0.625"/>
<circle fill="#662483" cx="10.75" cy="0.625" r="0.625"/>
<circle fill="#662483" cx="12.375" cy="0.625" r="0.625"/>
<circle fill="#662483" cx="14.188" cy="1.563" r="0.625"/>
<circle fill="#662483" cx="15.125" cy="3.167" r="0.625"/>
<circle fill="#662483" cx="16.167" cy="4.292" r="0.625"/>
<circle fill="#662483" cx="17.529" cy="5.407" r="0.625"/>
<circle fill="#662483" cx="19.292" cy="5.25" r="0.625"/>
<circle fill="#662483" cx="20.5" cy="6.125" r="0.625"/>
<circle fill="#662483" cx="20.583" cy="7.917" r="0.625"/>
<circle fill="#662483" cx="20.042" cy="9.583" r="0.625"/>
<circle fill="#662483" cx="19.75" cy="11.667" r="0.625"/>
<circle fill="#662483" cx="20.125" cy="13.876" r="0.625"/>
<circle fill="#662483" cx="19.75" cy="15.376" r="0.625"/>
<circle fill="#662483" cx="19.292" cy="17.459" r="0.625"/>
<circle fill="#662483" cx="18.375" cy="19.375" r="0.625"/>
<circle fill="#662483" cx="16.792" cy="20.25" r="0.625"/>
<circle fill="#662483" cx="14.751" cy="20.625" r="0.625"/>
<circle fill="#662483" cx="13.292" cy="22.208" r="0.625"/>
<circle fill="#662483" cx="11.833" cy="22.375" r="0.625"/>
<circle fill="#662483" cx="10.467" cy="23.375" r="0.625"/>
<circle fill="#662483" cx="8.508" cy="21.375" r="0.625"/>
<circle fill="#662483" cx="6.291" cy="21.042" r="0.625"/>
<circle fill="#662483" cx="4.916" cy="19.615" r="0.625"/>
<circle fill="#662483" cx="2.614" cy="16.323" r="0.625"/>
<circle fill="#662483" cx="2.218" cy="14.303" r="0.625"/>
<circle fill="#662483" cx="0.625" cy="13.084" r="0.625"/>
<circle fill="#662483" cx="1.916" cy="11.001" r="0.625"/>
<circle fill="#662483" cx="2.249" cy="12.877" r="0.625"/>
<circle fill="#662483" cx="3.416" cy="11.501" r="0.625"/>
<circle fill="#662483" cx="3.749" cy="13.21" r="0.625"/>
<circle fill="#662483" cx="3.583" cy="14.793" r="0.625"/>
<circle fill="#662483" cx="4.042" cy="16.376" r="0.625"/>
<circle fill="#662483" cx="4.959" cy="17.834" r="0.625"/>
<circle fill="#662483" cx="6.209" cy="18.667" r="0.625"/>
<circle fill="#662483" cx="7.542" cy="19.792" r="0.625"/>
<circle fill="#662483" cx="9.208" cy="20.25" r="0.625"/>
<circle fill="#662483" cx="10.458" cy="21.625" r="0.625"/>
<circle fill="#662483" cx="12.359" cy="20.969" r="0.625"/>
<circle fill="#662483" cx="13.333" cy="19.834" r="0.625"/>
<circle fill="#662483" cx="14.875" cy="19.084" r="0.625"/>
<circle fill="#662483" cx="17.042" cy="18.625" r="0.625"/>
<circle fill="#662483" cx="17.75" cy="17.375" r="0.625"/>
<circle fill="#662483" cx="18.292" cy="16" r="0.625"/>
<circle fill="#662483" cx="18.583" cy="14.292" r="0.625"/>
<circle fill="#662483" cx="18.416" cy="12.333" r="0.625"/>
<circle fill="#662483" cx="17.457" cy="11.208" r="0.625"/>
<circle fill="#662483" cx="18.624" cy="10.417" r="0.625"/>
<circle fill="#662483" cx="18.916" cy="8.875" r="0.625"/>
<circle fill="#662483" cx="19.291" cy="7.084" r="0.625"/>
<circle fill="#662483" cx="17.667" cy="6.834" r="0.625"/>
<circle fill="#662483" cx="16.125" cy="5.917" r="0.625"/>
<circle fill="#662483" cx="13.875" cy="3.333" r="0.625"/>
<circle fill="#662483" cx="12.417" cy="2.958" r="0.625"/>
<circle fill="#662483" cx="11.125" cy="2.167" r="0.625"/>
<circle fill="#662483" cx="7.208" cy="4.208" r="0.625"/>
<circle fill="#662483" cx="5.583" cy="4.958" r="0.625"/>
<circle fill="#662483" cx="4.125" cy="6.042" r="0.625"/>
<circle fill="#662483" cx="3.208" cy="7.5" r="0.625"/>
<circle fill="#662483" cx="2.916" cy="9.875" r="0.625"/>
<circle fill="#E30613" cx="4.583" cy="10" r="0.625"/>
<circle fill="#E30613" cx="3.791" cy="8.708" r="0.625"/>
<circle fill="#E30613" cx="5.083" cy="7.167" r="0.625"/>
<circle fill="#E30613" cx="6.458" cy="6.167" r="0.625"/>
<circle fill="#E30613" cx="7.729" cy="5.313" r="0.625"/>
<circle fill="#E30613" cx="9.354" cy="4.271" r="0.625"/>
<circle fill="#E30613" cx="11.229" cy="4.188" r="0.625"/>
<circle fill="#E30613" cx="12.645" cy="4.479" r="0.625"/>
<circle fill="#E30613" cx="14.311" cy="5.146" r="0.625"/>
<circle fill="#E30613" cx="14.895" cy="6.479" r="0.625"/>
<circle fill="#E30613" cx="16.311" cy="7.396" r="0.625"/>
<circle fill="#E30613" cx="17.769" cy="8.187" r="0.625"/>
<circle fill="#E30613" cx="17.227" cy="9.437" r="0.625"/>
<circle fill="#E30613" cx="15.893" cy="11.146" r="0.625"/>
<circle fill="#E30613" cx="15.685" cy="12.739" r="0.625"/>
<circle fill="#E30613" cx="17.352" cy="13.604" r="0.625"/>
<circle fill="#E30613" cx="17.042" cy="15.542" r="0.625"/>
<circle fill="#E30613" cx="16.292" cy="17.084" r="0.625"/>
<circle fill="#E30613" cx="14.375" cy="17.375" r="0.625"/>
<circle fill="#E30613" cx="12.75" cy="18.25" r="0.625"/>
<circle fill="#E30613" cx="11.5" cy="19.791" r="0.625"/>
<circle fill="#E30613" cx="9.709" cy="18.666" r="0.625"/>
<circle fill="#E30613" cx="8.167" cy="18.041" r="0.625"/>
<circle fill="#E30613" cx="6.459" cy="16.999" r="0.625"/>
<circle fill="#E30613" cx="5.376" cy="15.791" r="0.625"/>
<circle fill="#E30613" cx="5.001" cy="14.291" r="0.625"/>
<circle fill="#E30613" cx="5.459" cy="12.874" r="0.625"/>
<circle fill="#E30613" cx="4.875" cy="11.249" r="0.625"/>
<circle fill="#E30613" cx="5.313" cy="8.622" r="0.625"/>
<circle fill="#E30613" cx="6.625" cy="7.791" r="0.625"/>
<circle fill="#E30613" cx="8" cy="6.957" r="0.625"/>
<circle fill="#E30613" cx="9.292" cy="5.999" r="0.625"/>
<circle fill="#E30613" cx="11.584" cy="5.665" r="0.625"/>
<circle fill="#E30613" cx="13.251" cy="6.499" r="0.624"/>
<circle fill="#E30613" cx="14.167" cy="7.79" r="0.624"/>
<circle fill="#E30613" cx="15.417" cy="8.499" r="0.624"/>
<circle fill="#E30613" cx="15.542" cy="14.457" r="0.624"/>
<circle fill="#E30613" cx="14.792" cy="15.918" r="0.624"/>
<circle fill="#E30613" cx="13.042" cy="16.085" r="0.624"/>
<circle fill="#E30613" cx="11.125" cy="18.335" r="0.624"/>
<circle fill="#E30613" cx="7.458" cy="15.96" r="0.624"/>
<circle fill="#E30613" cx="6.502" cy="14.503" r="0.624"/>
<circle fill="#E30613" cx="8" cy="14.376" r="0.624"/>
<circle fill="#E30613" cx="6.333" cy="10.917" r="0.624"/>
<circle fill="#F18700" cx="7.75" cy="12.085" r="0.624"/>
<circle fill="#F18700" cx="6.792" cy="13.043" r="0.624"/>
<circle fill="#F18700" cx="7.75" cy="10.73" r="0.624"/>
<circle fill="#F18700" cx="6.979" cy="9.397" r="0.624"/>
<circle fill="#F18700" cx="8.771" cy="7.98" r="0.624"/>
<circle fill="#F18700" cx="10.114" cy="7.052" r="0.624"/>
<circle fill="#F18700" cx="11.698" cy="6.969" r="0.624"/>
<circle fill="#F18700" cx="12.906" cy="7.886" r="0.624"/>
<circle fill="#F18700" cx="14.197" cy="9.136" r="0.624"/>
<circle fill="#F18700" cx="14.447" cy="10.677" r="0.624"/>
<circle fill="#F18700" cx="15.739" cy="9.823" r="0.624"/>
<circle fill="#F18700" cx="14.072" cy="12.386" r="0.624"/>
<circle fill="#F18700" cx="14.28" cy="14.053" r="0.624"/>
<circle fill="#F18700" cx="12.78" cy="14.678" r="0.624"/>
<circle fill="#F18700" cx="11.531" cy="15.553" r="0.624"/>
<circle fill="#F18700" cx="11.739" cy="16.97" r="0.624"/>
<circle fill="#F18700" cx="10.239" cy="16.845" r="0.624"/>
<circle fill="#F18700" cx="8.781" cy="16.887" r="0.624"/>
<circle fill="#F18700" cx="9.156" cy="15.387" r="0.624"/>
<circle fill="#F18700" cx="9.583" cy="14.115" r="0.624"/>
<circle fill="#F18700" cx="8.781" cy="13.054" r="0.624"/>
<circle fill="#F18700" cx="9.188" cy="10.48" r="0.624"/>
<circle fill="#F18700" cx="10.083" cy="8.417" r="0.624"/>
<circle fill="#F18700" cx="10.375" cy="9.646" r="0.624"/>
<circle fill="#F18700" cx="8.625" cy="9.334" r="0.624"/>
<circle fill="#F18700" cx="11.75" cy="8.418" r="0.624"/>
<circle fill="#F18700" cx="11.75" cy="9.98" r="0.624"/>
<circle fill="#F18700" cx="13.125" cy="9.959" r="0.624"/>
<circle fill="#F18700" cx="12.916" cy="11.668" r="0.624"/>
<circle fill="#F18700" cx="12.708" cy="13.251" r="0.624"/>
<circle fill="#F18700" cx="11.333" cy="14.043" r="0.624"/>
<circle fill="#F18700" cx="10.374" cy="15.251" r="0.624"/>
<circle fill="#662483" cx="1.791" cy="8.876" r="0.625"/>
</svg>
