<?xml version="1.0" encoding="utf-8"?>
<!-- Generator: Adobe Illustrator 15.0.0, SVG Export Plug-In . SVG Version: 6.00 Build 0)  -->
<!DOCTYPE svg PUBLIC "-//W3C//DTD SVG 1.1//EN" "http://www.w3.org/Graphics/SVG/1.1/DTD/svg11.dtd">
<svg version="1.1" id="Ebene_1" xmlns="http://www.w3.org/2000/svg" xmlns:xlink="http://www.w3.org/1999/xlink" x="0px" y="0px"
	 width="24px" height="24px" viewBox="0 0 24 24" enable-background="new 0 0 24 24" xml:space="preserve">
<g id="svg2" sodipodi:docname="buffer.png" inkscape:version="0.48.3.1 r9886" xmlns:inkscape="http://www.inkscape.org/namespaces/inkscape" xmlns:sodipodi="http://sodipodi.sourceforge.net/DTD/sodipodi-0.dtd" xmlns:svg="http://www.w3.org/2000/svg" xmlns:cc="http://creativecommons.org/ns#" xmlns:rdf="http://www.w3.org/1999/02/22-rdf-syntax-ns#" xmlns:dc="http://purl.org/dc/elements/1.1/" display="none">
	
		<sodipodi:namedview  id="namedview4" inkscape:pageopacity="0" inkscape:pageshadow="2" inkscape:window-width="1375" inkscape:window-height="876" inkscape:window-x="65" inkscape:window-y="24" inkscape:current-layer="svg2" inkscape:window-maximized="1" pagecolor="#ffffff" inkscape:cy="0.5315574" showgrid="false" borderopacity="1" bordercolor="#666666" objecttolerance="10" gridtolerance="10" inkscape:zoom="9.8333333" guidetolerance="10" inkscape:cx="49.680464">
		</sodipodi:namedview>
	
	<polygon display="inline" fill="none" points="9.188,11.859 9.313,12.109 9.719,12.297 11.219,13.766 11.594,13.359 12.344,13.047 
		12.688,12.563 12.719,12.078 12.078,11.734 12.156,11.266 11.719,11.188 12.078,10.594 11.891,10.281 11.484,10 11.047,10.203 
		10.391,10.266 10.188,10.547 9.797,10.797 9.625,11.141 	"/>
</g>
<path fill="#999999" d="M4.5,19.584l1.104,0.146l0.25,0.582L6,20.521l0.666,0.125l0.043,0.229l-0.293,0.479l0.313,0.75l0.438,0.334
	l0.355-0.354c0,0,0.332-0.438,0.332-0.5s-0.02-0.625-0.02-0.625l0.729,0.438l0.709,0.457l0.645,0.813l0.5,0.458l0.506,0.625
	l0.563-0.188l0.266,0.358l0.281-0.125l0.047-0.53l0.359-0.298l0.391-0.155l-0.25-0.5l0.344-0.188l0.516-0.25l-0.03-0.422
	l0.108-0.609l0.328,0.017l0.719-0.688l0.313,0.078l0.483,0.406l0.688-0.095l0.267-0.344l0.781-0.141l0.702,0.203l0.048,0.328
	l0.405-0.172l0.188-0.547l0.438,0.047v-0.234v-0.797l0.281-0.219l-0.219-1.125l0.625-0.5l0.156-1.625l0.719-2.095L20,12.75
	l-0.469-1.063l0.5-1.906l0.406-1.875l0.28-0.781l0.563-0.406l-0.688-0.781l-1.063-0.844l-2,0.313l-0.469-0.375l-0.531-0.344
	L16.25,4.25l-0.844-0.031l-0.344-1.656l-0.875-1l-1.125-0.75L12.5,0.188l-0.844,0.188L11.313,0.75l-0.906,0.469L10.188,1.75
	l0.141,0.797L11,2.688L10.859,2.86l-0.531-0.156L10.172,3.11L9.516,3.031L9.313,2.672l-0.328-0.25L8.563,2.484L7.609,2.953
	L7.078,2.875L5.406,3.484L3.797,4.188L3.094,4.25L1.75,5.75L1.063,7.875L0.797,7.719L0.86,8.157L1.376,8.47l0.438,4.109L1.142,12.72
	l0.016,0.453l0.094,0.517l0.313,0.233l0.609,0.267l-0.297,0.53l0.422,0.609l0.234,1.688l0.406,0.016l0.156,0.25l-0.031,0.828
	l0.672,0.578l0.516,0.328l0.125,0.358l0.063,0.267L4.5,19.584z"/>
<path fill="#666666" d="M5.625,13.125l-0.688,0.667l-0.208,0.646l1.041,2.125l0.584,0.209L6.5,17.063l1.229,0.229L7.666,17.73
	l0.521,0.25l0.208,0.25l0.397,0.27l0.063,0.333l0.666,0.104l0.084,0.291l0.375,0.125l0.916,1.375l0.375,0.021l0.396-1.292
	l0.896-0.166l0.25-1.188L13.479,18l0.146-0.542l0.458-0.063l0.938-0.332l-0.146,0.604l0.583,0.146l1.021-0.188l0.166-0.583
	l0.021-0.5l0.563-0.979l0.521-0.771l-0.042-0.521c0,0-0.375-0.313-0.396-0.396c-0.021-0.083-0.188-0.979-0.188-0.979l-0.313-0.146
	l-0.957,0.083l0.332-0.479l0.188-0.625l-0.521-0.188l0.25-0.813l0.521-0.604l0.688-0.604l0.416-0.541l0.188-0.854l-0.146-0.25
	L17.125,8.02l-0.417-0.25l-0.125-0.458l-0.271-0.208l-0.875-0.063L15,6.417l-0.354-0.292L13.98,4.604L13.396,4.5L13.25,4.979
	l-0.458-0.083l-0.438-0.354l0.25-0.333l-0.25-0.229L11.77,4.105l-0.375,0.167l-1.313-0.063l-0.063-0.333l-1.063,0.75L8.313,4.563
	L7.896,5.438L6.938,5.563l-0.23,0.479L5.667,6.333c0,0-1.313,1.355-1.417,2.021S3.729,8.833,3.729,8.833l0.166,0.688l0.25,0.417
	l0.521-0.104l-0.021,1.042l0.104,1.042l0.542-0.021L5.25,13L5.625,13.125z"/>
<path fill="#333333" d="M10.5,6.5L9.75,7.281L9.219,7.438l-0.5,0.719L8.344,8.188L8.313,8.594L7.125,9.313l0.156,0.844l0.469-0.063
	l0.281,0.688l-0.375,0.781l-0.5,0.5v0.563l0.375-0.313L8,12.5l0.938,0.375l0.969,0.844l-0.563,0.469l-0.25,1.25l0.156,0.906
	l0.656,0.281l0.844,0.469L11.313,17l-0.063-0.406c0,0,0.188-1.094,0.344-1.281c0.156-0.187,1.843-0.875,1.843-0.875l1.125,0.313
	l-0.25-0.719l-0.063-0.656L14,12.75l0.344-0.719l-0.188-0.469h-0.281l0.438-0.719l0.125,0.031L15,9.281l-0.406-0.344l-0.688-0.125
	l-0.063-0.344l-0.969-0.625l-0.281,0.125l-0.375-0.875L11.281,7l-0.219-0.625L10.5,6.5z"/>
<circle fill="#FFFFFF" stroke="#000000" stroke-miterlimit="10" cx="10.75" cy="11.938" r="0.938"/>
<line fill="none" stroke="#FF0000" stroke-width="1.7334" stroke-linecap="round" stroke-miterlimit="10" x1="3.333" y1="3.333" x2="20.667" y2="20.667"/>
<line fill="none" stroke="#FF0000" stroke-width="1.7334" stroke-linecap="round" stroke-miterlimit="10" x1="20.667" y1="3.333" x2="3.333" y2="20.667"/>
</svg>
